<mxfile host="app.diagrams.net" modified="2021-06-20T08:12:20.086Z" agent="5.0 (Windows NT 10.0; Win64; x64) AppleWebKit/537.36 (KHTML, like Gecko) Chrome/91.0.4472.106 Safari/537.36" etag="x9YQ9JfoqxC_12Bykyz2" version="14.8.0" type="github">
  <diagram id="R2lEEEUBdFMjLlhIrx00" name="Page-1">
    <mxGraphModel dx="1612" dy="885" grid="1" gridSize="10" guides="1" tooltips="1" connect="1" arrows="1" fold="1" page="1" pageScale="1" pageWidth="850" pageHeight="1100" math="0" shadow="0" extFonts="Permanent Marker^https://fonts.googleapis.com/css?family=Permanent+Marker">
      <root>
        <mxCell id="0" />
        <mxCell id="1" parent="0" />
        <mxCell id="C-vyLk0tnHw3VtMMgP7b-12" value="" style="edgeStyle=entityRelationEdgeStyle;endArrow=ERzeroToMany;startArrow=ERone;endFill=1;startFill=0;" parent="1" target="C-vyLk0tnHw3VtMMgP7b-17" edge="1">
          <mxGeometry width="100" height="100" relative="1" as="geometry">
            <mxPoint x="700" y="165" as="sourcePoint" />
            <mxPoint x="460" y="205" as="targetPoint" />
          </mxGeometry>
        </mxCell>
        <mxCell id="Ja5mMF8Nh9TmUDj5DqXd-7" value="회사" style="rounded=0;whiteSpace=wrap;html=1;" vertex="1" parent="1">
          <mxGeometry x="-410" y="510" width="120" height="60" as="geometry" />
        </mxCell>
        <mxCell id="Ja5mMF8Nh9TmUDj5DqXd-8" value="부서" style="rounded=0;whiteSpace=wrap;html=1;" vertex="1" parent="1">
          <mxGeometry x="-690" y="510" width="120" height="60" as="geometry" />
        </mxCell>
        <mxCell id="Ja5mMF8Nh9TmUDj5DqXd-9" value="구성" style="rhombus;whiteSpace=wrap;html=1;" vertex="1" parent="1">
          <mxGeometry x="-530" y="500" width="80" height="80" as="geometry" />
        </mxCell>
        <mxCell id="Ja5mMF8Nh9TmUDj5DqXd-10" value="" style="endArrow=none;html=1;exitX=1;exitY=0.5;exitDx=0;exitDy=0;entryX=0;entryY=0.5;entryDx=0;entryDy=0;" edge="1" parent="1" source="Ja5mMF8Nh9TmUDj5DqXd-9" target="Ja5mMF8Nh9TmUDj5DqXd-7">
          <mxGeometry width="50" height="50" relative="1" as="geometry">
            <mxPoint x="-300" y="340" as="sourcePoint" />
            <mxPoint x="-250" y="290" as="targetPoint" />
          </mxGeometry>
        </mxCell>
        <mxCell id="Ja5mMF8Nh9TmUDj5DqXd-15" value="" style="endArrow=none;html=1;exitX=1;exitY=0.5;exitDx=0;exitDy=0;entryX=0;entryY=0.5;entryDx=0;entryDy=0;" edge="1" parent="1" source="Ja5mMF8Nh9TmUDj5DqXd-8" target="Ja5mMF8Nh9TmUDj5DqXd-9">
          <mxGeometry width="50" height="50" relative="1" as="geometry">
            <mxPoint x="-300" y="340" as="sourcePoint" />
            <mxPoint x="-250" y="290" as="targetPoint" />
          </mxGeometry>
        </mxCell>
        <mxCell id="Ja5mMF8Nh9TmUDj5DqXd-18" value="1" style="text;html=1;align=center;verticalAlign=middle;resizable=0;points=[];autosize=1;strokeColor=none;" vertex="1" parent="1">
          <mxGeometry x="-470" y="510" width="20" height="20" as="geometry" />
        </mxCell>
        <mxCell id="Ja5mMF8Nh9TmUDj5DqXd-19" value="n" style="text;html=1;align=center;verticalAlign=middle;resizable=0;points=[];autosize=1;strokeColor=none;" vertex="1" parent="1">
          <mxGeometry x="-530" y="510" width="20" height="20" as="geometry" />
        </mxCell>
        <mxCell id="Ja5mMF8Nh9TmUDj5DqXd-25" value="프로젝트" style="rounded=0;whiteSpace=wrap;html=1;" vertex="1" parent="1">
          <mxGeometry x="-690" y="720" width="120" height="60" as="geometry" />
        </mxCell>
        <mxCell id="Ja5mMF8Nh9TmUDj5DqXd-26" value="수행" style="rhombus;whiteSpace=wrap;html=1;" vertex="1" parent="1">
          <mxGeometry x="-670" y="610" width="80" height="80" as="geometry" />
        </mxCell>
        <mxCell id="Ja5mMF8Nh9TmUDj5DqXd-27" value="" style="endArrow=none;html=1;exitX=0.5;exitY=1;exitDx=0;exitDy=0;entryX=0.5;entryY=0;entryDx=0;entryDy=0;" edge="1" parent="1" source="Ja5mMF8Nh9TmUDj5DqXd-8" target="Ja5mMF8Nh9TmUDj5DqXd-26">
          <mxGeometry width="50" height="50" relative="1" as="geometry">
            <mxPoint x="-560" y="550" as="sourcePoint" />
            <mxPoint x="-520" y="550" as="targetPoint" />
          </mxGeometry>
        </mxCell>
        <mxCell id="Ja5mMF8Nh9TmUDj5DqXd-28" value="" style="endArrow=none;html=1;exitX=0.5;exitY=1;exitDx=0;exitDy=0;entryX=0.5;entryY=0;entryDx=0;entryDy=0;" edge="1" parent="1" source="Ja5mMF8Nh9TmUDj5DqXd-26" target="Ja5mMF8Nh9TmUDj5DqXd-25">
          <mxGeometry width="50" height="50" relative="1" as="geometry">
            <mxPoint x="-620" y="580" as="sourcePoint" />
            <mxPoint x="-620" y="620" as="targetPoint" />
          </mxGeometry>
        </mxCell>
        <mxCell id="Ja5mMF8Nh9TmUDj5DqXd-29" value="n" style="text;html=1;align=center;verticalAlign=middle;resizable=0;points=[];autosize=1;strokeColor=none;" vertex="1" parent="1">
          <mxGeometry x="-630" y="590" width="20" height="20" as="geometry" />
        </mxCell>
        <mxCell id="Ja5mMF8Nh9TmUDj5DqXd-30" value="m" style="text;html=1;align=center;verticalAlign=middle;resizable=0;points=[];autosize=1;strokeColor=none;" vertex="1" parent="1">
          <mxGeometry x="-635" y="680" width="30" height="20" as="geometry" />
        </mxCell>
      </root>
    </mxGraphModel>
  </diagram>
</mxfile>
